<svg width="39" height="40" fill="none" xmlns="http://www.w3.org/2000/svg" viewBox="0 0 39 40">
    <path fill-rule="evenodd" clip-rule="evenodd" d="M.43 19.9c0 10.582 8.578 19.16 19.16 19.16 10.577-.011 19.149-8.583 19.16-19.16C38.75 9.318 30.172.74 19.59.74S.43 9.318.43 19.9zm3.825-6.343A16.59 16.59 0 0119.59 3.32c9.152.011 16.569 7.428 16.58 16.58a16.59 16.59 0 11-31.915-6.343z" fill="#000"/>
    <path d="M13.59 17.64a2.38 2.38 0 100-4.76 2.38 2.38 0 000 4.76zM25.59 17.64a2.38 2.38 0 100-4.76 2.38 2.38 0 000 4.76zM19.59 31.05a10.78 10.78 0 01-9.66-5.48A8.31 8.31 0 019 21.74h2.89a5.53 5.53 0 00.61 2.51 8.38 8.38 0 0014.26-.13 5.529 5.529 0 00.55-2.38h2.88a8.27 8.27 0 01-.83 3.62 10.68 10.68 0 01-9.77 5.69z" fill="#000"/>
</svg>
